inDegrees=yes
name=ik_MT_012005D6_009-001_orientations
DataType=double
version=3
OpenSimVersion=4.4-2022-07-23-0e9fedc
endheader
time	pelvis_tilt	pelvis_list	pelvis_rotation	pelvis_tx	pelvis_ty	pelvis_tz	hip_flexion_r	hip_adduction_r	hip_rotation_r	knee_angle_r	knee_angle_r_beta	ankle_angle_r	subtalar_angle_r	mtp_angle_r	hip_flexion_l	hip_adduction_l	hip_rotation_l	knee_angle_l	knee_angle_l_beta	ankle_angle_l	subtalar_angle_l	mtp_angle_l	lumbar_extension	lumbar_bending	lumbar_rotation	arm_flex_r	arm_add_r	arm_rot_r	elbow_flex_r	pro_sup_r	wrist_flex_r	wrist_dev_r	arm_flex_l	arm_add_l	arm_rot_l	elbow_flex_l	pro_sup_l	wrist_flex_l	wrist_dev_l
18.24000000000005	0	0	0	0	0.93	0	59.35002791388178	29.99869181952232	39.99894040161107	47.86656563157788	0.8354291718929931	-39.9664712456855	0	0	-29.99349501820596	29.99554234135042	-39.99931029906596	0.002084367767286317	3.637908036158918e-05	29.98981663020249	0	0	0	0	0	0	0	0	0	0	0	0	0	0	0	0	0	0	0
18.25000000000005	0	0	0	0	0.93	0	60.0303026294308	29.99871582678733	39.99893616203614	45.94448038530248	0.8018824558414812	-39.96031051420149	0	0	-29.99344371864318	29.995637217539	-39.99931129095415	0.002087653328153471	3.643642421649569e-05	29.98977951080928	0	0	0	0	0	0	0	0	0	0	0	0	0	0	0	0	0	0	0
18.26000000000005	0	0	0	0	0.93	0	60.54126728584339	29.99873837175573	39.99893232881619	44.04932452018159	0.7688057461566402	-39.95078474681537	0	0	-29.99341698605788	29.99573993124254	-39.99931285301086	0.00209132005949803	3.650042075124434e-05	29.98973095338708	0	0	0	0	0	0	0	0	0	0	0	0	0	0	0	0	0	0	0
18.27000000000006	0	0	0	0	0.93	0	60.90332455883973	29.99875966997229	39.99892980219877	42.17332008473127	0.7360632919760146	-39.93296331805458	0	0	-29.99341586756847	29.99583887600295	-39.99931481625981	0.002094823961661344	3.656157538066192e-05	29.98968968782307	0	0	0	0	0	0	0	0	0	0	0	0	0	0	0	0	0	0	0
18.28000000000006	0	0	0	0	0.93	0	61.17706243706544	29.99878081450249	39.9989289532479	40.3172181539184	0.703668202030706	-39.88989552220634	0	0	-29.99342906597393	29.99593745732419	-39.99931683806027	0.002098687167249929	3.662900103786417e-05	29.98963869040725	0	0	0	0	0	0	0	0	0	0	0	0	0	0	0	0	0	0	0
18.29000000000006	0	0	0	0	0.93	0	61.41246279536979	29.99880227449835	39.99892974914341	38.49881805091409	0.6719311331146768	-39.6895731641082	0	0	-29.9934522217537	29.99602974714221	-39.99931887832736	0.002101260423283098	3.667391282813978e-05	29.98960288548709	0	0	0	0	0	0	0	0	0	0	0	0	0	0	0	0	0	0	0
18.30000000000006	0	0	0	0	0.93	0	61.75288942266933	29.99882375832066	39.99893340199304	37.08667290422481	0.6472845507888906	-37.96688199564871	0	0	-29.99346859798031	29.99612378304352	-39.99932078889211	0.00210600836890676	3.675678011197834e-05	29.98957015987806	0	0	0	0	0	0	0	0	0	0	0	0	0	0	0	0	0	0	0
18.31000000000006	0	0	0	0	0.93	0	62.13566632865201	29.99884480355351	39.99893939836807	36.02553353778055	0.6287641750219115	-35.12770119029387	0	0	-29.99347921136056	29.99620517674338	-39.9993225201837	0.002109881794209399	3.682438413683944e-05	29.98955143367371	0	0	0	0	0	0	0	0	0	0	0	0	0	0	0	0	0	0	0
18.32000000000006	0	0	0	0	0.93	0	62.5101816865631	29.99886642364586	39.99894640523229	35.02520914468859	0.6113052207744428	-32.26958820929386	0	0	-29.99349356216364	29.99628531431534	-39.99932392173167	0.00211485209200361	3.691113219815305e-05	29.98952309872334	0	0	0	0	0	0	0	0	0	0	0	0	0	0	0	0	0	0	0
18.33000000000007	0	0	0	0	0.93	0	62.8772204361833	29.99888949584729	39.99895451940672	34.03398274721	0.5940050565057594	-29.5763773039054	0	0	-29.99350580797712	29.9963542456617	-39.9993252362942	0.002119542273539651	3.69929913084732e-05	29.98950164188495	0	0	0	0	0	0	0	0	0	0	0	0	0	0	0	0	0	0	0
18.34000000000007	0	0	0	0	0.93	0	63.29174714239353	29.99891418112795	39.9989635177097	33.00640417927647	0.5760704271723912	-27.15612886629229	0	0	-29.99350629896709	29.996418019935	-39.99932631814265	0.002124683441047801	3.708272160888697e-05	29.98946704078303	0	0	0	0	0	0	0	0	0	0	0	0	0	0	0	0	0	0	0
18.35000000000007	0	0	0	0	0.93	0	63.78269739970649	29.99893996019537	39.9989731436407	31.92064065677421	0.5571202788066753	-24.96502715762146	0	0	-29.99349666663294	29.99647336282099	-39.99932721780083	0.002129536408187658	3.716742186396856e-05	29.98943381128418	0	0	0	0	0	0	0	0	0	0	0	0	0	0	0	0	0	0	0
18.36000000000007	0	0	0	0	0.93	0	64.41342009463895	29.99896608361342	39.99898295078426	30.73160805595422	0.5363677450088149	-22.91436212251238	0	0	-29.99348162378145	29.9965306208963	-39.99932772197401	0.002135600117005753	3.727325354772654e-05	29.98938339978363	0	0	0	0	0	0	0	0	0	0	0	0	0	0	0	0	0	0	0
18.37000000000007	0	0	0	0	0.93	0	65.24321059770305	29.99899257927139	39.99899268251257	29.41096029135276	0.5133180932574164	-20.84288168415402	0	0	-29.99346657557206	29.99658035068688	-39.99932817665523	0.002141369416927987	3.737394682690456e-05	29.989345161505	0	0	0	0	0	0	0	0	0	0	0	0	0	0	0	0	0	0	0
18.38000000000007	0	0	0	0	0.93	0	66.40918277524518	29.99901935004429	39.99900184724667	27.91931842236983	0.4872840313830624	-18.57494734357138	0	0	-29.9934535899836	29.99662874024625	-39.99932857706565	0.002147672651008469	3.748395901513289e-05	29.98930129733048	0	0	0	0	0	0	0	0	0	0	0	0	0	0	0	0	0	0	0
18.39000000000008	0	0	0	0	0.93	0	68.04684558656848	29.99904625546319	39.99900975163737	26.21411893566012	0.4575226859366606	-15.86234785821907	0	0	-29.99344057498107	29.99667353732895	-39.99932899855133	0.002153452231523821	3.758483172450991e-05	29.98927220875593	0	0	0	0	0	0	0	0	0	0	0	0	0	0	0	0	0	0	0
18.40000000000008	0	0	0	0	0.93	0	70.51451606844478	29.99907386998997	39.99901499153317	24.12566609550683	0.421072307603359	-12.3240364662489	0	0	-29.99343280312308	29.99672039035832	-39.99932945488141	0.002160369227548568	3.770555607948909e-05	29.98923177086354	0	0	0	0	0	0	0	0	0	0	0	0	0	0	0	0	0	0	0
18.41000000000008	0	0	0	0	0.93	0	74.35749567372666	29.99910327276665	39.99901539842077	21.29626298286578	0.3716899074215967	-7.545571249322809	0	0	-29.99343797579477	29.99676533683234	-39.99933012722946	0.002166707753919819	3.781618423439191e-05	29.98919861502264	0	0	0	0	0	0	0	0	0	0	0	0	0	0	0	0	0	0	0
18.42000000000008	0	0	0	0	0.93	0	81.00158262621213	29.99913708650088	39.99900475859569	16.65411256716084	0.290669098294722	-0.9250442959606422	0	0	-29.993463914014	29.9968144084283	-39.99933113516941	0.00217342040272471	3.793334205756733e-05	29.98915793836393	0	0	0	0	0	0	0	0	0	0	0	0	0	0	0	0	0	0	0
18.43000000000008	0	0	0	0	0.93	0	99.27097189894953	29.99919110046834	39.99893914155506	0.08630639405826819	0.001506330741840451	4.242372438684881	0	0	-29.99351268962588	29.9968648498383	-39.99933256962203	0.00217992485655656	3.804686619297707e-05	29.98912659992747	0	0	0	0	0	0	0	0	0	0	0	0	0	0	0	0	0	0	0
18.44000000000008	0	0	0	0	0.93	0	108.8865319472152	29.99922615589475	39.99887159021242	0.01916669160956724	0.0003345218753013198	21.18689114606179	0	0	-29.99357563555679	29.99691982005118	-39.99933413932514	0.002187427293449834	3.81778084186878e-05	29.98908190382194	0	0	0	0	0	0	0	0	0	0	0	0	0	0	0	0	0	0	0
18.45000000000008	0	0	0	0	0.93	0	116.2566069277421	29.99926031677926	39.99878442033244	0.009575247767358869	0.0001671196002346483	29.92486984206407	0	0	-29.99365516200209	29.9969730103056	-39.9993359185649	0.002193649119960171	3.828639977678105e-05	29.98904822318619	0	0	0	0	0	0	0	0	0	0	0	0	0	0	0	0	0	0	0
18.46000000000009	0	0	0	0	0.93	0	119.8174128668859	29.99928994623104	39.9987128172713	0.006321138021827855	0.0001103246709538973	29.97261886387017	0	0	-29.99373240068016	29.997027479377	-39.99933782629201	0.002199979428629601	3.839688450573014e-05	29.98900497095727	0	0	0	0	0	0	0	0	0	0	0	0	0	0	0	0	0	0	0
18.47000000000009	0	0	0	0	0.93	0	119.9723905728802	29.99930354788681	39.99871538509433	0.005264755399563676	9.188731603453578e-05	29.98051416848477	0	0	-29.99381115691958	29.99707849182044	-39.99933980918794	0.002206333942312516	3.850779169186004e-05	29.98897667966882	0	0	0	0	0	0	0	0	0	0	0	0	0	0	0	0	0	0	0
18.48000000000009	0	0	0	0	0.93	0	119.9845429222967	29.99931528962263	39.99872209127199	0.00457790498841225	7.989951489126663e-05	29.98463880325529	0	0	-29.99389681624589	29.99712876798899	-39.9993417781273	0.002212682861191982	3.861860123024876e-05	29.98894389903644	0	0	0	0	0	0	0	0	0	0	0	0	0	0	0	0	0	0	0
18.49000000000009	0	0	0	0	0.93	0	119.9891110368149	29.999325822843	39.99873015077499	0.004081096716752697	7.122857479966499e-05	29.98725202946899	0	0	-29.99399214439408	29.99717657137525	-39.99934385978852	0.002218601198076564	3.872189569512692e-05	29.98891830597509	0	0	0	0	0	0	0	0	0	0	0	0	0	0	0	0	0	0	0
